<mxfile host="app.diagrams.net" modified="2024-03-23T13:20:12.716Z" agent="Mozilla/5.0 (Windows NT 10.0; Win64; x64; rv:123.0) Gecko/20100101 Firefox/123.0" etag="z0TnGhsOGBieUHeuLg1I" version="24.0.9" type="github">
  <diagram id="C5RBs43oDa-KdzZeNtuy" name="Page-1">
    <mxGraphModel dx="1434" dy="782" grid="1" gridSize="10" guides="1" tooltips="1" connect="1" arrows="1" fold="1" page="1" pageScale="1" pageWidth="827" pageHeight="1169" math="0" shadow="0">
      <root>
        <mxCell id="WIyWlLk6GJQsqaUBKTNV-0" />
        <mxCell id="WIyWlLk6GJQsqaUBKTNV-1" parent="WIyWlLk6GJQsqaUBKTNV-0" />
        <mxCell id="cAOWCEoVTnvoUcEwPBtx-7" value="" style="edgeStyle=orthogonalEdgeStyle;rounded=0;orthogonalLoop=1;jettySize=auto;html=1;" edge="1" parent="WIyWlLk6GJQsqaUBKTNV-1" source="WIyWlLk6GJQsqaUBKTNV-3" target="cAOWCEoVTnvoUcEwPBtx-2">
          <mxGeometry relative="1" as="geometry" />
        </mxCell>
        <mxCell id="WIyWlLk6GJQsqaUBKTNV-3" value="&lt;div&gt;Quality Control&lt;br&gt;&lt;/div&gt;&lt;i&gt;FastQC&lt;/i&gt;" style="rounded=1;whiteSpace=wrap;html=1;fontSize=12;glass=0;strokeWidth=1;shadow=0;fillColor=#d5e8d4;strokeColor=#82b366;" parent="WIyWlLk6GJQsqaUBKTNV-1" vertex="1">
          <mxGeometry x="160" y="80" width="120" height="40" as="geometry" />
        </mxCell>
        <mxCell id="cAOWCEoVTnvoUcEwPBtx-24" value="" style="edgeStyle=orthogonalEdgeStyle;rounded=0;orthogonalLoop=1;jettySize=auto;html=1;" edge="1" parent="WIyWlLk6GJQsqaUBKTNV-1" source="cAOWCEoVTnvoUcEwPBtx-0">
          <mxGeometry relative="1" as="geometry">
            <mxPoint x="220" y="80" as="targetPoint" />
            <Array as="points">
              <mxPoint x="220" y="50" />
              <mxPoint x="220" y="50" />
            </Array>
          </mxGeometry>
        </mxCell>
        <mxCell id="cAOWCEoVTnvoUcEwPBtx-0" value="&lt;b&gt;Raw Illumina short-reads (WGS)&lt;/b&gt;" style="text;html=1;align=center;verticalAlign=middle;resizable=0;points=[];autosize=1;strokeColor=none;fillColor=none;" vertex="1" parent="WIyWlLk6GJQsqaUBKTNV-1">
          <mxGeometry x="130" y="30" width="200" height="30" as="geometry" />
        </mxCell>
        <mxCell id="cAOWCEoVTnvoUcEwPBtx-9" value="" style="edgeStyle=orthogonalEdgeStyle;rounded=0;orthogonalLoop=1;jettySize=auto;html=1;" edge="1" parent="WIyWlLk6GJQsqaUBKTNV-1" source="cAOWCEoVTnvoUcEwPBtx-10" target="cAOWCEoVTnvoUcEwPBtx-8">
          <mxGeometry relative="1" as="geometry" />
        </mxCell>
        <mxCell id="cAOWCEoVTnvoUcEwPBtx-2" value="&lt;div&gt;Preprocessing&lt;br&gt;&lt;/div&gt;&lt;i&gt;Trimmomatic&lt;/i&gt;" style="rounded=1;whiteSpace=wrap;html=1;fontSize=12;glass=0;strokeWidth=1;shadow=0;fillColor=#d5e8d4;strokeColor=#82b366;" vertex="1" parent="WIyWlLk6GJQsqaUBKTNV-1">
          <mxGeometry x="160" y="160" width="120" height="40" as="geometry" />
        </mxCell>
        <mxCell id="cAOWCEoVTnvoUcEwPBtx-8" value="&lt;div&gt;Quality Control&lt;br&gt;&lt;/div&gt;&lt;i&gt;FastQC&lt;/i&gt;" style="rounded=1;whiteSpace=wrap;html=1;fontSize=12;glass=0;strokeWidth=1;shadow=0;fillColor=#d5e8d4;strokeColor=#82b366;" vertex="1" parent="WIyWlLk6GJQsqaUBKTNV-1">
          <mxGeometry x="160" y="260" width="120" height="40" as="geometry" />
        </mxCell>
        <mxCell id="cAOWCEoVTnvoUcEwPBtx-50" value="" style="edgeStyle=orthogonalEdgeStyle;rounded=0;orthogonalLoop=1;jettySize=auto;html=1;" edge="1" parent="WIyWlLk6GJQsqaUBKTNV-1" source="cAOWCEoVTnvoUcEwPBtx-12" target="cAOWCEoVTnvoUcEwPBtx-30">
          <mxGeometry relative="1" as="geometry" />
        </mxCell>
        <mxCell id="cAOWCEoVTnvoUcEwPBtx-12" value="&lt;div&gt;Assembly&lt;br&gt;&lt;/div&gt;&lt;i&gt;Flye&lt;/i&gt;" style="rounded=1;whiteSpace=wrap;html=1;fontSize=12;glass=0;strokeWidth=1;shadow=0;fillColor=#d5e8d4;strokeColor=#82b366;" vertex="1" parent="WIyWlLk6GJQsqaUBKTNV-1">
          <mxGeometry x="345" y="260" width="120" height="40" as="geometry" />
        </mxCell>
        <mxCell id="cAOWCEoVTnvoUcEwPBtx-13" value="&lt;b&gt;PacBio long-reads&lt;/b&gt;" style="text;html=1;align=center;verticalAlign=middle;resizable=0;points=[];autosize=1;strokeColor=none;fillColor=none;" vertex="1" parent="WIyWlLk6GJQsqaUBKTNV-1">
          <mxGeometry x="340" y="220" width="130" height="30" as="geometry" />
        </mxCell>
        <mxCell id="cAOWCEoVTnvoUcEwPBtx-55" value="" style="edgeStyle=orthogonalEdgeStyle;rounded=0;orthogonalLoop=1;jettySize=auto;html=1;" edge="1" parent="WIyWlLk6GJQsqaUBKTNV-1" source="cAOWCEoVTnvoUcEwPBtx-16">
          <mxGeometry relative="1" as="geometry">
            <mxPoint x="320" y="480" as="targetPoint" />
          </mxGeometry>
        </mxCell>
        <mxCell id="cAOWCEoVTnvoUcEwPBtx-16" value="&lt;div&gt;Assembly Polishing&lt;br&gt;&lt;/div&gt;&lt;i&gt;Pilon&lt;/i&gt;" style="rounded=1;whiteSpace=wrap;html=1;fontSize=12;glass=0;strokeWidth=1;shadow=0;fillColor=#e1d5e7;strokeColor=#9673a6;" vertex="1" parent="WIyWlLk6GJQsqaUBKTNV-1">
          <mxGeometry x="260" y="400" width="120" height="40" as="geometry" />
        </mxCell>
        <mxCell id="cAOWCEoVTnvoUcEwPBtx-20" value="" style="edgeStyle=orthogonalEdgeStyle;rounded=0;orthogonalLoop=1;jettySize=auto;html=1;" edge="1" parent="WIyWlLk6GJQsqaUBKTNV-1" source="cAOWCEoVTnvoUcEwPBtx-2" target="cAOWCEoVTnvoUcEwPBtx-10">
          <mxGeometry relative="1" as="geometry">
            <mxPoint x="220" y="200" as="sourcePoint" />
            <mxPoint x="220" y="265" as="targetPoint" />
          </mxGeometry>
        </mxCell>
        <mxCell id="cAOWCEoVTnvoUcEwPBtx-10" value="&lt;b&gt;Cleaned Illumina reads&lt;/b&gt;" style="text;html=1;align=center;verticalAlign=middle;resizable=0;points=[];autosize=1;strokeColor=none;fillColor=none;" vertex="1" parent="WIyWlLk6GJQsqaUBKTNV-1">
          <mxGeometry x="145" y="220" width="150" height="30" as="geometry" />
        </mxCell>
        <mxCell id="cAOWCEoVTnvoUcEwPBtx-30" value="&lt;b&gt;Initial assembly&lt;/b&gt;" style="text;html=1;align=center;verticalAlign=middle;resizable=0;points=[];autosize=1;strokeColor=none;fillColor=none;" vertex="1" parent="WIyWlLk6GJQsqaUBKTNV-1">
          <mxGeometry x="350" y="330" width="110" height="30" as="geometry" />
        </mxCell>
        <mxCell id="cAOWCEoVTnvoUcEwPBtx-49" value="" style="edgeStyle=none;orthogonalLoop=1;jettySize=auto;html=1;rounded=0;" edge="1" parent="WIyWlLk6GJQsqaUBKTNV-1">
          <mxGeometry width="100" relative="1" as="geometry">
            <mxPoint x="404.71" y="240" as="sourcePoint" />
            <mxPoint x="404.71" y="260" as="targetPoint" />
            <Array as="points" />
          </mxGeometry>
        </mxCell>
        <mxCell id="cAOWCEoVTnvoUcEwPBtx-51" style="edgeStyle=orthogonalEdgeStyle;rounded=0;orthogonalLoop=1;jettySize=auto;html=1;entryX=0.508;entryY=-0.089;entryDx=0;entryDy=0;entryPerimeter=0;exitX=0.5;exitY=1;exitDx=0;exitDy=0;" edge="1" parent="WIyWlLk6GJQsqaUBKTNV-1" source="cAOWCEoVTnvoUcEwPBtx-8" target="cAOWCEoVTnvoUcEwPBtx-16">
          <mxGeometry relative="1" as="geometry">
            <mxPoint x="220" y="360" as="sourcePoint" />
            <Array as="points">
              <mxPoint x="220" y="380" />
              <mxPoint x="321" y="380" />
            </Array>
          </mxGeometry>
        </mxCell>
        <mxCell id="cAOWCEoVTnvoUcEwPBtx-53" style="edgeStyle=orthogonalEdgeStyle;rounded=0;orthogonalLoop=1;jettySize=auto;html=1;entryX=0.508;entryY=-0.104;entryDx=0;entryDy=0;entryPerimeter=0;" edge="1" parent="WIyWlLk6GJQsqaUBKTNV-1" source="cAOWCEoVTnvoUcEwPBtx-30" target="cAOWCEoVTnvoUcEwPBtx-16">
          <mxGeometry relative="1" as="geometry" />
        </mxCell>
        <mxCell id="cAOWCEoVTnvoUcEwPBtx-58" value="" style="edgeStyle=orthogonalEdgeStyle;rounded=0;orthogonalLoop=1;jettySize=auto;html=1;" edge="1" parent="WIyWlLk6GJQsqaUBKTNV-1" source="cAOWCEoVTnvoUcEwPBtx-56" target="cAOWCEoVTnvoUcEwPBtx-57">
          <mxGeometry relative="1" as="geometry" />
        </mxCell>
        <mxCell id="cAOWCEoVTnvoUcEwPBtx-56" value="&lt;b&gt;Polished genome assembly&lt;/b&gt;" style="text;html=1;align=center;verticalAlign=middle;resizable=0;points=[];autosize=1;strokeColor=none;fillColor=none;" vertex="1" parent="WIyWlLk6GJQsqaUBKTNV-1">
          <mxGeometry x="230" y="480" width="180" height="30" as="geometry" />
        </mxCell>
        <mxCell id="cAOWCEoVTnvoUcEwPBtx-84" style="edgeStyle=orthogonalEdgeStyle;rounded=0;orthogonalLoop=1;jettySize=auto;html=1;entryX=0.5;entryY=0;entryDx=0;entryDy=0;" edge="1" parent="WIyWlLk6GJQsqaUBKTNV-1" source="cAOWCEoVTnvoUcEwPBtx-57" target="cAOWCEoVTnvoUcEwPBtx-83">
          <mxGeometry relative="1" as="geometry">
            <Array as="points">
              <mxPoint x="320" y="590" />
              <mxPoint x="510" y="590" />
            </Array>
          </mxGeometry>
        </mxCell>
        <mxCell id="cAOWCEoVTnvoUcEwPBtx-57" value="&lt;div&gt;Assembly Evaluation&lt;br&gt;&lt;/div&gt;&lt;i&gt;Quast&lt;/i&gt;" style="rounded=1;whiteSpace=wrap;html=1;fontSize=12;glass=0;strokeWidth=1;shadow=0;fillColor=#e1d5e7;strokeColor=#9673a6;" vertex="1" parent="WIyWlLk6GJQsqaUBKTNV-1">
          <mxGeometry x="260" y="540" width="120" height="40" as="geometry" />
        </mxCell>
        <mxCell id="cAOWCEoVTnvoUcEwPBtx-66" value="" style="edgeStyle=orthogonalEdgeStyle;rounded=0;orthogonalLoop=1;jettySize=auto;html=1;" edge="1" parent="WIyWlLk6GJQsqaUBKTNV-1" source="cAOWCEoVTnvoUcEwPBtx-61" target="cAOWCEoVTnvoUcEwPBtx-65">
          <mxGeometry relative="1" as="geometry" />
        </mxCell>
        <mxCell id="cAOWCEoVTnvoUcEwPBtx-61" value="&lt;div&gt;Quality Control&lt;br&gt;&lt;i&gt;FastQC&lt;/i&gt;&lt;br&gt;&lt;/div&gt;&lt;i&gt;&lt;/i&gt;" style="rounded=1;whiteSpace=wrap;html=1;fontSize=12;glass=0;strokeWidth=1;shadow=0;fillColor=#f8cecc;strokeColor=#b85450;" vertex="1" parent="WIyWlLk6GJQsqaUBKTNV-1">
          <mxGeometry x="695" y="80" width="120" height="40" as="geometry" />
        </mxCell>
        <mxCell id="cAOWCEoVTnvoUcEwPBtx-64" value="" style="edgeStyle=orthogonalEdgeStyle;rounded=0;orthogonalLoop=1;jettySize=auto;html=1;" edge="1" parent="WIyWlLk6GJQsqaUBKTNV-1" source="cAOWCEoVTnvoUcEwPBtx-63" target="cAOWCEoVTnvoUcEwPBtx-61">
          <mxGeometry relative="1" as="geometry" />
        </mxCell>
        <mxCell id="cAOWCEoVTnvoUcEwPBtx-63" value="&lt;b&gt;RNA seq-data&lt;/b&gt;" style="text;html=1;align=center;verticalAlign=middle;resizable=0;points=[];autosize=1;strokeColor=none;fillColor=none;" vertex="1" parent="WIyWlLk6GJQsqaUBKTNV-1">
          <mxGeometry x="705" y="30" width="100" height="30" as="geometry" />
        </mxCell>
        <mxCell id="cAOWCEoVTnvoUcEwPBtx-68" value="" style="edgeStyle=orthogonalEdgeStyle;rounded=0;orthogonalLoop=1;jettySize=auto;html=1;" edge="1" parent="WIyWlLk6GJQsqaUBKTNV-1" source="cAOWCEoVTnvoUcEwPBtx-65" target="cAOWCEoVTnvoUcEwPBtx-67">
          <mxGeometry relative="1" as="geometry" />
        </mxCell>
        <mxCell id="cAOWCEoVTnvoUcEwPBtx-65" value="&lt;div&gt;Preprocessing&lt;br&gt;&lt;/div&gt;&lt;i&gt;Trimmomatic&lt;/i&gt;" style="rounded=1;whiteSpace=wrap;html=1;fontSize=12;glass=0;strokeWidth=1;shadow=0;fillColor=#f8cecc;strokeColor=#b85450;" vertex="1" parent="WIyWlLk6GJQsqaUBKTNV-1">
          <mxGeometry x="695" y="160" width="120" height="40" as="geometry" />
        </mxCell>
        <mxCell id="cAOWCEoVTnvoUcEwPBtx-70" value="" style="edgeStyle=orthogonalEdgeStyle;rounded=0;orthogonalLoop=1;jettySize=auto;html=1;" edge="1" parent="WIyWlLk6GJQsqaUBKTNV-1" source="cAOWCEoVTnvoUcEwPBtx-67" target="cAOWCEoVTnvoUcEwPBtx-69">
          <mxGeometry relative="1" as="geometry" />
        </mxCell>
        <mxCell id="cAOWCEoVTnvoUcEwPBtx-67" value="&lt;b&gt;Cleaned RNA seq-data&lt;/b&gt;" style="text;html=1;align=center;verticalAlign=middle;resizable=0;points=[];autosize=1;strokeColor=none;fillColor=none;" vertex="1" parent="WIyWlLk6GJQsqaUBKTNV-1">
          <mxGeometry x="680" y="220" width="150" height="30" as="geometry" />
        </mxCell>
        <mxCell id="cAOWCEoVTnvoUcEwPBtx-72" value="" style="edgeStyle=orthogonalEdgeStyle;rounded=0;orthogonalLoop=1;jettySize=auto;html=1;" edge="1" parent="WIyWlLk6GJQsqaUBKTNV-1" source="cAOWCEoVTnvoUcEwPBtx-69" target="cAOWCEoVTnvoUcEwPBtx-71">
          <mxGeometry relative="1" as="geometry" />
        </mxCell>
        <mxCell id="cAOWCEoVTnvoUcEwPBtx-82" style="edgeStyle=orthogonalEdgeStyle;rounded=0;orthogonalLoop=1;jettySize=auto;html=1;" edge="1" parent="WIyWlLk6GJQsqaUBKTNV-1" source="cAOWCEoVTnvoUcEwPBtx-69" target="cAOWCEoVTnvoUcEwPBtx-79">
          <mxGeometry relative="1" as="geometry" />
        </mxCell>
        <mxCell id="cAOWCEoVTnvoUcEwPBtx-69" value="&lt;div&gt;Quality Control&lt;br&gt;&lt;i&gt;FastQC&lt;/i&gt;&lt;br&gt;&lt;/div&gt;&lt;i&gt;&lt;/i&gt;" style="rounded=1;whiteSpace=wrap;html=1;fontSize=12;glass=0;strokeWidth=1;shadow=0;fillColor=#f8cecc;strokeColor=#b85450;" vertex="1" parent="WIyWlLk6GJQsqaUBKTNV-1">
          <mxGeometry x="695" y="260" width="120" height="40" as="geometry" />
        </mxCell>
        <mxCell id="cAOWCEoVTnvoUcEwPBtx-81" value="" style="edgeStyle=orthogonalEdgeStyle;rounded=0;orthogonalLoop=1;jettySize=auto;html=1;" edge="1" parent="WIyWlLk6GJQsqaUBKTNV-1" source="cAOWCEoVTnvoUcEwPBtx-71" target="cAOWCEoVTnvoUcEwPBtx-73">
          <mxGeometry relative="1" as="geometry" />
        </mxCell>
        <mxCell id="cAOWCEoVTnvoUcEwPBtx-71" value="&lt;div&gt;Transcriptome Assembly&lt;br&gt;&lt;/div&gt;&lt;i&gt;Trinity&lt;/i&gt;" style="rounded=1;whiteSpace=wrap;html=1;fontSize=12;glass=0;strokeWidth=1;shadow=0;fillColor=#f8cecc;strokeColor=#b85450;" vertex="1" parent="WIyWlLk6GJQsqaUBKTNV-1">
          <mxGeometry x="805" y="340" width="120" height="40" as="geometry" />
        </mxCell>
        <mxCell id="cAOWCEoVTnvoUcEwPBtx-73" value="&lt;b&gt;Assembled Transcriptome&lt;/b&gt;" style="text;html=1;align=center;verticalAlign=middle;resizable=0;points=[];autosize=1;strokeColor=none;fillColor=none;" vertex="1" parent="WIyWlLk6GJQsqaUBKTNV-1">
          <mxGeometry x="780" y="405" width="170" height="30" as="geometry" />
        </mxCell>
        <mxCell id="cAOWCEoVTnvoUcEwPBtx-77" value="&lt;div&gt;Differential Expression&lt;br&gt;&lt;/div&gt;&lt;i&gt;DESeq2/HTseq&lt;/i&gt;" style="rounded=1;whiteSpace=wrap;html=1;fontSize=12;glass=0;strokeWidth=1;shadow=0;fillColor=#ffe6cc;strokeColor=#d79b00;" vertex="1" parent="WIyWlLk6GJQsqaUBKTNV-1">
          <mxGeometry x="450" y="750" width="120" height="40" as="geometry" />
        </mxCell>
        <mxCell id="cAOWCEoVTnvoUcEwPBtx-87" value="" style="edgeStyle=orthogonalEdgeStyle;rounded=0;orthogonalLoop=1;jettySize=auto;html=1;" edge="1" parent="WIyWlLk6GJQsqaUBKTNV-1" source="cAOWCEoVTnvoUcEwPBtx-79" target="cAOWCEoVTnvoUcEwPBtx-86">
          <mxGeometry relative="1" as="geometry" />
        </mxCell>
        <mxCell id="cAOWCEoVTnvoUcEwPBtx-79" value="&lt;div&gt;RNA Mapping&lt;br&gt;&lt;/div&gt;&lt;div&gt;&lt;i&gt;STAR&lt;/i&gt;&lt;/div&gt;" style="rounded=1;whiteSpace=wrap;html=1;fontSize=12;glass=0;strokeWidth=1;shadow=0;fillColor=#f8cecc;strokeColor=#b85450;" vertex="1" parent="WIyWlLk6GJQsqaUBKTNV-1">
          <mxGeometry x="600" y="340" width="120" height="40" as="geometry" />
        </mxCell>
        <mxCell id="cAOWCEoVTnvoUcEwPBtx-90" value="" style="edgeStyle=orthogonalEdgeStyle;rounded=0;orthogonalLoop=1;jettySize=auto;html=1;" edge="1" parent="WIyWlLk6GJQsqaUBKTNV-1" source="cAOWCEoVTnvoUcEwPBtx-83" target="cAOWCEoVTnvoUcEwPBtx-89">
          <mxGeometry relative="1" as="geometry" />
        </mxCell>
        <mxCell id="cAOWCEoVTnvoUcEwPBtx-83" value="&lt;div&gt;Annotation&lt;br&gt;&lt;/div&gt;&lt;i&gt;BRAKER&lt;/i&gt;" style="rounded=1;whiteSpace=wrap;html=1;fontSize=12;glass=0;strokeWidth=1;shadow=0;fillColor=#e1d5e7;strokeColor=#9673a6;" vertex="1" parent="WIyWlLk6GJQsqaUBKTNV-1">
          <mxGeometry x="450" y="610" width="120" height="40" as="geometry" />
        </mxCell>
        <mxCell id="cAOWCEoVTnvoUcEwPBtx-88" style="edgeStyle=orthogonalEdgeStyle;rounded=0;orthogonalLoop=1;jettySize=auto;html=1;entryX=0.5;entryY=0;entryDx=0;entryDy=0;" edge="1" parent="WIyWlLk6GJQsqaUBKTNV-1" source="cAOWCEoVTnvoUcEwPBtx-86" target="cAOWCEoVTnvoUcEwPBtx-83">
          <mxGeometry relative="1" as="geometry" />
        </mxCell>
        <mxCell id="cAOWCEoVTnvoUcEwPBtx-86" value="&lt;b&gt;Mapped RNA seq-data&lt;/b&gt;" style="text;html=1;align=center;verticalAlign=middle;resizable=0;points=[];autosize=1;strokeColor=none;fillColor=none;" vertex="1" parent="WIyWlLk6GJQsqaUBKTNV-1">
          <mxGeometry x="585" y="405" width="150" height="30" as="geometry" />
        </mxCell>
        <mxCell id="cAOWCEoVTnvoUcEwPBtx-100" value="" style="edgeStyle=orthogonalEdgeStyle;rounded=0;orthogonalLoop=1;jettySize=auto;html=1;" edge="1" parent="WIyWlLk6GJQsqaUBKTNV-1" source="cAOWCEoVTnvoUcEwPBtx-89" target="cAOWCEoVTnvoUcEwPBtx-77">
          <mxGeometry relative="1" as="geometry" />
        </mxCell>
        <mxCell id="cAOWCEoVTnvoUcEwPBtx-89" value="&lt;b&gt;Annotated Genome&lt;/b&gt;" style="text;html=1;align=center;verticalAlign=middle;resizable=0;points=[];autosize=1;strokeColor=none;fillColor=none;" vertex="1" parent="WIyWlLk6GJQsqaUBKTNV-1">
          <mxGeometry x="445" y="680" width="130" height="30" as="geometry" />
        </mxCell>
      </root>
    </mxGraphModel>
  </diagram>
</mxfile>
